<?xml version="1.0" ?><svg data-name="Layer 2" id="Layer_2" viewBox="0 0 2010 2010" xmlns="http://www.w3.org/2000/svg" xmlns:xlink="http://www.w3.org/1999/xlink"><defs><style>.cls-1{fill:url(#linear-gradient);}.cls-2{fill:url(#linear-gradient-2);}.cls-3{fill:url(#linear-gradient-3);}.cls-4{fill:url(#linear-gradient-4);}</style><linearGradient gradientUnits="userSpaceOnUse" id="linear-gradient" x1="1515.84" x2="791.57" y1="-240.89" y2="849.33"><stop offset="0" stop-color="#69bbff"/><stop offset="1" stop-color="#1798ff"/></linearGradient><linearGradient gradientUnits="userSpaceOnUse" id="linear-gradient-2" x1="1397.49" x2="787.58" y1="-93.5" y2="1366.48"><stop offset="0" stop-color="#69bbff"/><stop offset="1" stop-color="#9de0f4"/></linearGradient><linearGradient id="linear-gradient-3" x1="1808.95" x2="1084.68" xlink:href="#linear-gradient" y1="-46.17" y2="1044.05"/><linearGradient id="linear-gradient-4" x1="1623.67" x2="1013.76" xlink:href="#linear-gradient-2" y1="0.99" y2="1460.97"/></defs><path class="cls-1" d="M1583.38,653.06c-38.25,0-72-7.87-103.21-24-25.92-13.44-44.83-29.79-61.52-44.21-25.21-21.79-36.71-31.74-66.63-31.74s-41.42,10-66.63,31.74c-16.68,14.42-35.6,30.77-61.51,44.21-31.2,16.18-65,24-103.22,24s-72-7.87-103.21-24c-25.91-13.44-44.82-29.79-61.51-44.21-25.21-21.79-36.71-31.74-66.62-31.74s-41.42,10-66.63,31.74C806,599.22,787.09,615.57,761.18,629c-31.2,16.18-65,24-103.21,24s-72-7.87-103.22-24c-25.91-13.44-44.82-29.79-61.51-44.21C468,563,456.53,553.06,426.62,553.06a75,75,0,0,1,0-150c38.25,0,72,7.87,103.21,24.05,25.91,13.44,44.83,29.79,61.51,44.21,25.21,21.79,36.71,31.74,66.63,31.74s41.41-9.95,66.62-31.74c16.69-14.42,35.6-30.77,61.51-44.21,31.2-16.18,65-24.05,103.22-24.05s72,7.87,103.21,24.05c25.91,13.44,44.82,29.79,61.51,44.21,25.21,21.79,36.71,31.74,66.62,31.74s41.43-9.95,66.64-31.74c16.68-14.42,35.59-30.77,61.51-44.21,31.19-16.18,65-24.05,103.21-24.05s72,7.87,103.22,24.05c25.91,13.44,44.82,29.79,61.51,44.21,25.21,21.79,36.72,31.74,66.63,31.74a75,75,0,1,1,0,150Z"/><path class="cls-2" d="M1583.38,971c-38.25,0-72-7.87-103.21-24-25.92-13.44-44.83-29.79-61.52-44.21C1393.44,881,1381.94,871,1352,871s-41.42,10-66.63,31.74c-16.68,14.42-35.6,30.77-61.51,44.21-31.2,16.18-65,24-103.22,24s-72-7.87-103.21-24c-25.91-13.44-44.82-29.79-61.51-44.21C930.73,881,919.23,871,889.32,871s-41.42,10-66.63,31.74C806,917.18,787.09,933.53,761.18,947c-31.2,16.18-65,24-103.21,24s-72-7.87-103.22-24c-25.91-13.44-44.82-29.79-61.51-44.21C468,881,456.53,871,426.62,871a75,75,0,1,1,0-150c38.25,0,72,7.87,103.21,24.05,25.91,13.44,44.83,29.79,61.51,44.21C616.55,811.07,628.05,821,658,821s41.41-9.95,66.62-31.74c16.69-14.42,35.6-30.77,61.51-44.21,31.2-16.18,65-24.05,103.22-24.05s72,7.87,103.21,24.05c25.91,13.44,44.82,29.79,61.51,44.21,25.21,21.79,36.71,31.74,66.62,31.74s41.43-9.95,66.64-31.74c16.68-14.42,35.59-30.77,61.51-44.21C1280,728.89,1313.77,721,1352,721s72,7.87,103.22,24.05c25.91,13.44,44.82,29.79,61.51,44.21C1542,811.07,1553.47,821,1583.38,821a75,75,0,0,1,0,150Z"/><path class="cls-3" d="M1583.38,1289c-38.25,0-72-7.87-103.21-24-25.92-13.44-44.83-29.79-61.52-44.21-25.21-21.79-36.71-31.74-66.63-31.74s-41.42,10-66.63,31.74c-16.68,14.42-35.6,30.77-61.51,44.21-31.2,16.18-65,24-103.22,24s-72-7.87-103.21-24c-25.91-13.44-44.82-29.79-61.51-44.21-25.21-21.79-36.71-31.74-66.62-31.74s-41.42,10-66.63,31.74c-16.69,14.42-35.6,30.77-61.51,44.21-31.2,16.18-65,24-103.21,24s-72-7.87-103.22-24c-25.91-13.44-44.82-29.79-61.51-44.21C468,1198.93,456.53,1189,426.62,1189a75,75,0,1,1,0-150c38.25,0,72,7.87,103.21,24,25.91,13.44,44.83,29.79,61.51,44.21C616.55,1129,628.05,1139,658,1139s41.41-10,66.62-31.74c16.69-14.42,35.6-30.77,61.51-44.21,31.2-16.18,65-24,103.22-24s72,7.87,103.21,24c25.91,13.44,44.82,29.79,61.51,44.21,25.21,21.79,36.71,31.74,66.62,31.74s41.43-10,66.64-31.74c16.68-14.42,35.59-30.77,61.51-44.21,31.19-16.18,65-24,103.21-24s72,7.87,103.22,24c25.91,13.44,44.82,29.79,61.51,44.21C1542,1129,1553.47,1139,1583.38,1139a75,75,0,0,1,0,150Z"/><path class="cls-4" d="M1583.38,1606.94c-38.25,0-72-7.87-103.21-24-25.92-13.44-44.83-29.79-61.52-44.21-25.21-21.79-36.71-31.74-66.63-31.74s-41.42,10-66.63,31.74c-16.68,14.42-35.6,30.77-61.51,44.21-31.2,16.18-65,24-103.22,24s-72-7.87-103.21-24c-25.91-13.44-44.82-29.79-61.51-44.21-25.21-21.79-36.71-31.74-66.62-31.74s-41.42,10-66.63,31.74c-16.69,14.42-35.6,30.77-61.51,44.21-31.2,16.18-65,24-103.21,24s-72-7.87-103.22-24c-25.91-13.44-44.82-29.79-61.51-44.21-25.2-21.79-36.71-31.74-66.62-31.74a75,75,0,1,1,0-150c38.25,0,72,7.87,103.21,24,25.91,13.44,44.83,29.79,61.51,44.21,25.21,21.79,36.71,31.74,66.63,31.74s41.41-10,66.62-31.74c16.69-14.42,35.6-30.77,61.51-44.21,31.2-16.18,65-24,103.22-24s72,7.87,103.21,24c25.91,13.44,44.82,29.79,61.51,44.21,25.21,21.79,36.71,31.74,66.62,31.74s41.43-10,66.64-31.74c16.68-14.42,35.59-30.77,61.51-44.21,31.19-16.18,65-24,103.21-24s72,7.87,103.22,24c25.91,13.44,44.82,29.79,61.51,44.21,25.21,21.79,36.72,31.74,66.63,31.74a75,75,0,0,1,0,150Z"/></svg>